<?xml version="1.0" encoding="UTF-8" standalone="no"?>
<!DOCTYPE svg PUBLIC "-//W3C//DTD SVG 1.1//EN"
 "http://www.w3.org/Graphics/SVG/1.1/DTD/svg11.dtd">
<!-- Generated by graphviz version 2.30.1 (20150306.0020)
 -->
<!-- Title: snakemake_dag Pages: 1 -->
<svg width="1022pt" height="692pt"
 viewBox="0.00 0.00 1022.00 692.00" xmlns="http://www.w3.org/2000/svg" xmlns:xlink="http://www.w3.org/1999/xlink">
<g id="graph0" class="graph" transform="scale(1 1) rotate(0) translate(4 688)">
<title>snakemake_dag</title>
<polygon fill="white" stroke="white" points="-4,5 -4,-688 1019,-688 1019,5 -4,5"/>
<!-- 0 -->
<g id="node1" class="node"><title>0</title>
<path fill="none" stroke="#97d856" stroke-width="2" d="M638,-36C638,-36 608,-36 608,-36 602,-36 596,-30 596,-24 596,-24 596,-12 596,-12 596,-6 602,-0 608,-0 608,-0 638,-0 638,-0 644,-0 650,-6 650,-12 650,-12 650,-24 650,-24 650,-30 644,-36 638,-36"/>
<text text-anchor="middle" x="623" y="-15.5" font-family="sans" font-size="10.00">final</text>
</g>
<!-- 1 -->
<g id="node2" class="node"><title>1</title>
<path fill="none" stroke="#d89556" stroke-width="2" stroke-dasharray="5,2" d="M282.25,-540C282.25,-540 217.75,-540 217.75,-540 211.75,-540 205.75,-534 205.75,-528 205.75,-528 205.75,-516 205.75,-516 205.75,-510 211.75,-504 217.75,-504 217.75,-504 282.25,-504 282.25,-504 288.25,-504 294.25,-510 294.25,-516 294.25,-516 294.25,-528 294.25,-528 294.25,-534 288.25,-540 282.25,-540"/>
<text text-anchor="middle" x="250" y="-519.5" font-family="sans" font-size="10.00">concat_gcskew</text>
</g>
<!-- 1&#45;&gt;0 -->
<g id="edge1" class="edge"><title>1&#45;&gt;0</title>
<path fill="none" stroke="grey" stroke-width="2" d="M262.512,-503.591C279.831,-477.734 309,-427.053 309,-379 309,-379 309,-379 309,-161 309,-40.6555 502.855,-21.7608 585.929,-19.1889"/>
<polygon fill="grey" stroke="grey" points="586.046,-22.6872 595.957,-18.9418 585.874,-15.6893 586.046,-22.6872"/>
</g>
<!-- 2 -->
<g id="node3" class="node"><title>2</title>
<path fill="none" stroke="#78d856" stroke-width="2" stroke-dasharray="5,2" d="M104,-612C104,-612 12,-612 12,-612 6,-612 0,-606 0,-600 0,-600 0,-588 0,-588 0,-582 6,-576 12,-576 12,-576 104,-576 104,-576 110,-576 116,-582 116,-588 116,-588 116,-600 116,-600 116,-606 110,-612 104,-612"/>
<text text-anchor="middle" x="58" y="-597" font-family="sans" font-size="10.00">gcskew</text>
<text text-anchor="middle" x="58" y="-586" font-family="sans" font-size="10.00">sample: CP001759.1</text>
</g>
<!-- 2&#45;&gt;1 -->
<g id="edge11" class="edge"><title>2&#45;&gt;1</title>
<path fill="none" stroke="grey" stroke-width="2" d="M104.968,-575.876C132.498,-565.839 167.38,-553.122 196.035,-542.675"/>
<polygon fill="grey" stroke="grey" points="197.299,-545.939 205.495,-539.226 194.901,-539.363 197.299,-545.939"/>
</g>
<!-- 3 -->
<g id="node4" class="node"><title>3</title>
<path fill="none" stroke="#d85656" stroke-width="2" stroke-dasharray="5,2" d="M743,-684C743,-684 713,-684 713,-684 707,-684 701,-678 701,-672 701,-672 701,-660 701,-660 701,-654 707,-648 713,-648 713,-648 743,-648 743,-648 749,-648 755,-654 755,-660 755,-660 755,-672 755,-672 755,-678 749,-684 743,-684"/>
<text text-anchor="middle" x="728" y="-663.5" font-family="sans" font-size="10.00">wget</text>
</g>
<!-- 3&#45;&gt;2 -->
<g id="edge14" class="edge"><title>3&#45;&gt;2</title>
<path fill="none" stroke="grey" stroke-width="2" d="M700.756,-664.165C616.561,-661.258 353.046,-649.704 126.429,-612.088"/>
<polygon fill="grey" stroke="grey" points="126.789,-608.599 116.348,-610.393 125.629,-615.502 126.789,-608.599"/>
</g>
<!-- 4 -->
<g id="node5" class="node"><title>4</title>
<path fill="none" stroke="#78d856" stroke-width="2" stroke-dasharray="5,2" d="M238,-612C238,-612 146,-612 146,-612 140,-612 134,-606 134,-600 134,-600 134,-588 134,-588 134,-582 140,-576 146,-576 146,-576 238,-576 238,-576 244,-576 250,-582 250,-588 250,-588 250,-600 250,-600 250,-606 244,-612 238,-612"/>
<text text-anchor="middle" x="192" y="-597" font-family="sans" font-size="10.00">gcskew</text>
<text text-anchor="middle" x="192" y="-586" font-family="sans" font-size="10.00">sample: CP023731.1</text>
</g>
<!-- 3&#45;&gt;4 -->
<g id="edge15" class="edge"><title>3&#45;&gt;4</title>
<path fill="none" stroke="grey" stroke-width="2" d="M700.847,-663.229C629.914,-658.328 433.148,-642.978 260.395,-612.12"/>
<polygon fill="grey" stroke="grey" points="260.826,-608.642 250.363,-610.306 259.58,-615.53 260.826,-608.642"/>
</g>
<!-- 5 -->
<g id="node6" class="node"><title>5</title>
<path fill="none" stroke="#78d856" stroke-width="2" stroke-dasharray="5,2" d="M372,-612C372,-612 280,-612 280,-612 274,-612 268,-606 268,-600 268,-600 268,-588 268,-588 268,-582 274,-576 280,-576 280,-576 372,-576 372,-576 378,-576 384,-582 384,-588 384,-588 384,-600 384,-600 384,-606 378,-612 372,-612"/>
<text text-anchor="middle" x="326" y="-597" font-family="sans" font-size="10.00">gcskew</text>
<text text-anchor="middle" x="326" y="-586" font-family="sans" font-size="10.00">sample: CP023730.1</text>
</g>
<!-- 3&#45;&gt;5 -->
<g id="edge16" class="edge"><title>3&#45;&gt;5</title>
<path fill="none" stroke="grey" stroke-width="2" d="M700.926,-661.573C645.317,-654.352 514.064,-636.372 394.117,-612.129"/>
<polygon fill="grey" stroke="grey" points="394.528,-608.641 384.03,-610.07 393.127,-615.5 394.528,-608.641"/>
</g>
<!-- 6 -->
<g id="node7" class="node"><title>6</title>
<path fill="none" stroke="#d87556" stroke-width="2" stroke-dasharray="5,2" d="M642,-540C642,-540 612,-540 612,-540 606,-540 600,-534 600,-528 600,-528 600,-516 600,-516 600,-510 606,-504 612,-504 612,-504 642,-504 642,-504 648,-504 654,-510 654,-516 654,-516 654,-528 654,-528 654,-534 648,-540 642,-540"/>
<text text-anchor="middle" x="627" y="-519.5" font-family="sans" font-size="10.00">cactus</text>
</g>
<!-- 3&#45;&gt;6 -->
<g id="edge17" class="edge"><title>3&#45;&gt;6</title>
<path fill="none" stroke="grey" stroke-width="2" d="M755.297,-651.316C769.979,-642.338 786.729,-629.088 795,-612 801.971,-597.598 804.46,-588.904 795,-576 765.122,-535.244 703.824,-525.02 664.113,-522.893"/>
<polygon fill="grey" stroke="grey" points="664.151,-519.392 654.023,-522.501 663.879,-526.387 664.151,-519.392"/>
</g>
<!-- 7 -->
<g id="node8" class="node"><title>7</title>
<path fill="none" stroke="#569ad8" stroke-width="2" stroke-dasharray="5,2" d="M506,-612C506,-612 414,-612 414,-612 408,-612 402,-606 402,-600 402,-600 402,-588 402,-588 402,-582 408,-576 414,-576 414,-576 506,-576 506,-576 512,-576 518,-582 518,-588 518,-588 518,-600 518,-600 518,-606 512,-612 506,-612"/>
<text text-anchor="middle" x="460" y="-597" font-family="sans" font-size="10.00">genbank2gff3</text>
<text text-anchor="middle" x="460" y="-586" font-family="sans" font-size="10.00">sample: CP001759.1</text>
</g>
<!-- 3&#45;&gt;7 -->
<g id="edge21" class="edge"><title>3&#45;&gt;7</title>
<path fill="none" stroke="grey" stroke-width="2" d="M700.828,-657.903C660.656,-647.41 584.137,-627.424 528.095,-612.786"/>
<polygon fill="grey" stroke="grey" points="528.795,-609.351 518.235,-610.211 527.025,-616.124 528.795,-609.351"/>
</g>
<!-- 8 -->
<g id="node9" class="node"><title>8</title>
<path fill="none" stroke="#569ad8" stroke-width="2" stroke-dasharray="5,2" d="M640,-612C640,-612 548,-612 548,-612 542,-612 536,-606 536,-600 536,-600 536,-588 536,-588 536,-582 542,-576 548,-576 548,-576 640,-576 640,-576 646,-576 652,-582 652,-588 652,-588 652,-600 652,-600 652,-606 646,-612 640,-612"/>
<text text-anchor="middle" x="594" y="-597" font-family="sans" font-size="10.00">genbank2gff3</text>
<text text-anchor="middle" x="594" y="-586" font-family="sans" font-size="10.00">sample: CP023731.1</text>
</g>
<!-- 3&#45;&gt;8 -->
<g id="edge22" class="edge"><title>3&#45;&gt;8</title>
<path fill="none" stroke="grey" stroke-width="2" d="M700.883,-650.834C682.23,-641.09 657.093,-627.959 635.883,-616.879"/>
<polygon fill="grey" stroke="grey" points="637.243,-613.641 626.759,-612.113 634.002,-619.845 637.243,-613.641"/>
</g>
<!-- 9 -->
<g id="node10" class="node"><title>9</title>
<path fill="none" stroke="#569ad8" stroke-width="2" stroke-dasharray="5,2" d="M774,-612C774,-612 682,-612 682,-612 676,-612 670,-606 670,-600 670,-600 670,-588 670,-588 670,-582 676,-576 682,-576 682,-576 774,-576 774,-576 780,-576 786,-582 786,-588 786,-588 786,-600 786,-600 786,-606 780,-612 774,-612"/>
<text text-anchor="middle" x="728" y="-597" font-family="sans" font-size="10.00">genbank2gff3</text>
<text text-anchor="middle" x="728" y="-586" font-family="sans" font-size="10.00">sample: CP023730.1</text>
</g>
<!-- 3&#45;&gt;9 -->
<g id="edge23" class="edge"><title>3&#45;&gt;9</title>
<path fill="none" stroke="grey" stroke-width="2" d="M728,-647.697C728,-639.983 728,-630.712 728,-622.112"/>
<polygon fill="grey" stroke="grey" points="731.5,-622.104 728,-612.104 724.5,-622.104 731.5,-622.104"/>
</g>
<!-- 14 -->
<g id="node15" class="node"><title>14</title>
<path fill="none" stroke="#59d856" stroke-width="2" stroke-dasharray="5,2" d="M706,-468C706,-468 614,-468 614,-468 608,-468 602,-462 602,-456 602,-456 602,-444 602,-444 602,-438 608,-432 614,-432 614,-432 706,-432 706,-432 712,-432 718,-438 718,-444 718,-444 718,-456 718,-456 718,-462 712,-468 706,-468"/>
<text text-anchor="middle" x="660" y="-453" font-family="sans" font-size="10.00">minigraph</text>
<text text-anchor="middle" x="660" y="-442" font-family="sans" font-size="10.00">sample: CP001759.1</text>
</g>
<!-- 3&#45;&gt;14 -->
<g id="edge30" class="edge"><title>3&#45;&gt;14</title>
<path fill="none" stroke="grey" stroke-width="2" d="M755.182,-656.184C775.12,-648.124 800.764,-634.049 813,-612 820.764,-598.01 819.857,-590.456 813,-576 790.776,-529.145 741.439,-494.036 704.764,-473.14"/>
<polygon fill="grey" stroke="grey" points="706.18,-469.924 695.737,-468.136 702.786,-476.046 706.18,-469.924"/>
</g>
<!-- 16 -->
<g id="node17" class="node"><title>16</title>
<path fill="none" stroke="#59d856" stroke-width="2" stroke-dasharray="5,2" d="M840,-468C840,-468 748,-468 748,-468 742,-468 736,-462 736,-456 736,-456 736,-444 736,-444 736,-438 742,-432 748,-432 748,-432 840,-432 840,-432 846,-432 852,-438 852,-444 852,-444 852,-456 852,-456 852,-462 846,-468 840,-468"/>
<text text-anchor="middle" x="794" y="-453" font-family="sans" font-size="10.00">minigraph</text>
<text text-anchor="middle" x="794" y="-442" font-family="sans" font-size="10.00">sample: CP023731.1</text>
</g>
<!-- 3&#45;&gt;16 -->
<g id="edge33" class="edge"><title>3&#45;&gt;16</title>
<path fill="none" stroke="grey" stroke-width="2" d="M755.033,-663.346C787.61,-659.734 841.073,-648.276 866,-612 893.184,-572.44 887.658,-546.836 866,-504 859.861,-491.858 849.485,-481.817 838.492,-473.862"/>
<polygon fill="grey" stroke="grey" points="840.281,-470.848 830.027,-468.185 836.383,-476.662 840.281,-470.848"/>
</g>
<!-- 18 -->
<g id="node19" class="node"><title>18</title>
<path fill="none" stroke="#59d856" stroke-width="2" stroke-dasharray="5,2" d="M974,-468C974,-468 882,-468 882,-468 876,-468 870,-462 870,-456 870,-456 870,-444 870,-444 870,-438 876,-432 882,-432 882,-432 974,-432 974,-432 980,-432 986,-438 986,-444 986,-444 986,-456 986,-456 986,-462 980,-468 974,-468"/>
<text text-anchor="middle" x="928" y="-453" font-family="sans" font-size="10.00">minigraph</text>
<text text-anchor="middle" x="928" y="-442" font-family="sans" font-size="10.00">sample: CP023730.1</text>
</g>
<!-- 3&#45;&gt;18 -->
<g id="edge36" class="edge"><title>3&#45;&gt;18</title>
<path fill="none" stroke="grey" stroke-width="2" d="M755.052,-663.859C790.951,-660.841 853.879,-650.064 889,-612 923.112,-575.031 928.817,-513.423 929.008,-478.102"/>
<polygon fill="grey" stroke="grey" points="932.507,-478.008 928.916,-468.041 925.508,-478.072 932.507,-478.008"/>
</g>
<!-- 22 -->
<g id="node23" class="node"><title>22</title>
<path fill="none" stroke="#56d8d8" stroke-width="2" stroke-dasharray="5,2" d="M991,-180C991,-180 961,-180 961,-180 955,-180 949,-174 949,-168 949,-168 949,-156 949,-156 949,-150 955,-144 961,-144 961,-144 991,-144 991,-144 997,-144 1003,-150 1003,-156 1003,-156 1003,-168 1003,-168 1003,-174 997,-180 991,-180"/>
<text text-anchor="middle" x="976" y="-159.5" font-family="sans" font-size="10.00">fastani</text>
</g>
<!-- 3&#45;&gt;22 -->
<g id="edge41" class="edge"><title>3&#45;&gt;22</title>
<path fill="none" stroke="grey" stroke-width="2" d="M755.164,-664.012C826.554,-659.825 1014,-637.891 1014,-523 1014,-523 1014,-523 1014,-305 1014,-263.633 998.765,-217.722 987.588,-189.605"/>
<polygon fill="grey" stroke="grey" points="990.721,-188.019 983.69,-180.093 984.244,-190.673 990.721,-188.019"/>
</g>
<!-- 4&#45;&gt;1 -->
<g id="edge12" class="edge"><title>4&#45;&gt;1</title>
<path fill="none" stroke="grey" stroke-width="2" d="M206.337,-575.697C213.291,-567.305 221.77,-557.07 229.401,-547.861"/>
<polygon fill="grey" stroke="grey" points="232.143,-550.038 235.828,-540.104 226.753,-545.571 232.143,-550.038"/>
</g>
<!-- 5&#45;&gt;1 -->
<g id="edge13" class="edge"><title>5&#45;&gt;1</title>
<path fill="none" stroke="grey" stroke-width="2" d="M307.213,-575.697C297.826,-567.05 286.316,-556.449 276.087,-547.027"/>
<polygon fill="grey" stroke="grey" points="278.297,-544.305 268.57,-540.104 273.555,-549.454 278.297,-544.305"/>
</g>
<!-- 6&#45;&gt;0 -->
<g id="edge2" class="edge"><title>6&#45;&gt;0</title>
<path fill="none" stroke="grey" stroke-width="2" d="M599.717,-511.63C553.315,-493.758 464,-450.121 464,-379 464,-379 464,-379 464,-161 464,-95.7324 539.452,-53.0017 586.403,-32.7301"/>
<polygon fill="grey" stroke="grey" points="587.789,-35.9443 595.667,-28.8601 585.091,-29.4852 587.789,-35.9443"/>
</g>
<!-- 10 -->
<g id="node11" class="node"><title>10</title>
<path fill="none" stroke="#b6d856" stroke-width="2" stroke-dasharray="5,2" d="M534,-324C534,-324 504,-324 504,-324 498,-324 492,-318 492,-312 492,-312 492,-300 492,-300 492,-294 498,-288 504,-288 504,-288 534,-288 534,-288 540,-288 546,-294 546,-300 546,-300 546,-312 546,-312 546,-318 540,-324 534,-324"/>
<text text-anchor="middle" x="519" y="-303.5" font-family="sans" font-size="10.00">odgi</text>
</g>
<!-- 6&#45;&gt;10 -->
<g id="edge24" class="edge"><title>6&#45;&gt;10</title>
<path fill="none" stroke="grey" stroke-width="2" d="M599.913,-505.564C586.041,-496.346 570.008,-483.429 560,-468 533.088,-426.513 523.834,-368.385 520.656,-334.512"/>
<polygon fill="grey" stroke="grey" points="524.134,-334.096 519.823,-324.418 517.158,-334.672 524.134,-334.096"/>
</g>
<!-- 11 -->
<g id="node12" class="node"><title>11</title>
<path fill="none" stroke="#d8b456" stroke-width="2" stroke-dasharray="5,2" d="M589.25,-252C589.25,-252 558.75,-252 558.75,-252 552.75,-252 546.75,-246 546.75,-240 546.75,-240 546.75,-228 546.75,-228 546.75,-222 552.75,-216 558.75,-216 558.75,-216 589.25,-216 589.25,-216 595.25,-216 601.25,-222 601.25,-228 601.25,-228 601.25,-240 601.25,-240 601.25,-246 595.25,-252 589.25,-252"/>
<text text-anchor="middle" x="574" y="-231.5" font-family="sans" font-size="10.00">gfatools</text>
</g>
<!-- 6&#45;&gt;11 -->
<g id="edge25" class="edge"><title>6&#45;&gt;11</title>
<path fill="none" stroke="grey" stroke-width="2" d="M613.013,-503.974C605.715,-494.092 597.41,-481.049 593,-468 568.933,-396.781 569.747,-306.643 572.035,-262.247"/>
<polygon fill="grey" stroke="grey" points="575.531,-262.422 572.619,-252.235 568.543,-262.015 575.531,-262.422"/>
</g>
<!-- 6&#45;&gt;14 -->
<g id="edge31" class="edge"><title>6&#45;&gt;14</title>
<path fill="none" stroke="grey" stroke-width="2" d="M635.157,-503.697C638.914,-495.728 643.453,-486.1 647.618,-477.264"/>
<polygon fill="grey" stroke="grey" points="650.838,-478.642 651.937,-468.104 644.506,-475.657 650.838,-478.642"/>
</g>
<!-- 6&#45;&gt;16 -->
<g id="edge34" class="edge"><title>6&#45;&gt;16</title>
<path fill="none" stroke="grey" stroke-width="2" d="M654.203,-509.597C678.472,-499.425 714.618,-484.274 744.075,-471.927"/>
<polygon fill="grey" stroke="grey" points="745.51,-475.12 753.38,-468.026 742.804,-468.664 745.51,-475.12"/>
</g>
<!-- 6&#45;&gt;18 -->
<g id="edge37" class="edge"><title>6&#45;&gt;18</title>
<path fill="none" stroke="grey" stroke-width="2" d="M654.076,-515.105C696.01,-505.923 779.422,-487.457 860.096,-468.188"/>
<polygon fill="grey" stroke="grey" points="861.009,-471.568 869.918,-465.835 859.378,-464.761 861.009,-471.568"/>
</g>
<!-- 7&#45;&gt;6 -->
<g id="edge18" class="edge"><title>7&#45;&gt;6</title>
<path fill="none" stroke="grey" stroke-width="2" d="M500.853,-575.876C528.287,-564.377 564.117,-549.358 590.578,-538.267"/>
<polygon fill="grey" stroke="grey" points="592.001,-541.465 599.87,-534.372 589.295,-535.01 592.001,-541.465"/>
</g>
<!-- 8&#45;&gt;6 -->
<g id="edge19" class="edge"><title>8&#45;&gt;6</title>
<path fill="none" stroke="grey" stroke-width="2" d="M602.157,-575.697C605.914,-567.728 610.453,-558.1 614.618,-549.264"/>
<polygon fill="grey" stroke="grey" points="617.838,-550.642 618.937,-540.104 611.506,-547.657 617.838,-550.642"/>
</g>
<!-- 9&#45;&gt;6 -->
<g id="edge20" class="edge"><title>9&#45;&gt;6</title>
<path fill="none" stroke="grey" stroke-width="2" d="M703.293,-575.876C690.331,-566.893 674.272,-555.763 660.235,-546.034"/>
<polygon fill="grey" stroke="grey" points="662.015,-543.009 651.802,-540.19 658.028,-548.763 662.015,-543.009"/>
</g>
<!-- 10&#45;&gt;0 -->
<g id="edge3" class="edge"><title>10&#45;&gt;0</title>
<path fill="none" stroke="grey" stroke-width="2" d="M521.562,-287.717C524.461,-269.621 529.741,-240.485 537,-216 556.566,-150.008 564.757,-134.311 594,-72 598.144,-63.1695 603.105,-53.7604 607.741,-45.3584"/>
<polygon fill="grey" stroke="grey" points="610.935,-46.8181 612.778,-36.3847 604.831,-43.392 610.935,-46.8181"/>
</g>
<!-- 11&#45;&gt;0 -->
<g id="edge4" class="edge"><title>11&#45;&gt;0</title>
<path fill="none" stroke="grey" stroke-width="2" d="M576.732,-215.935C581.61,-186.383 592.574,-123.867 606,-72 608.238,-63.3541 611.076,-54.0431 613.789,-45.674"/>
<polygon fill="grey" stroke="grey" points="617.158,-46.6343 616.987,-36.0408 610.514,-44.4285 617.158,-46.6343"/>
</g>
<!-- 12 -->
<g id="node13" class="node"><title>12</title>
<path fill="none" stroke="#56d8b9" stroke-width="2" stroke-dasharray="5,2" d="M829.25,-324C829.25,-324 758.75,-324 758.75,-324 752.75,-324 746.75,-318 746.75,-312 746.75,-312 746.75,-300 746.75,-300 746.75,-294 752.75,-288 758.75,-288 758.75,-288 829.25,-288 829.25,-288 835.25,-288 841.25,-294 841.25,-300 841.25,-300 841.25,-312 841.25,-312 841.25,-318 835.25,-324 829.25,-324"/>
<text text-anchor="middle" x="794" y="-303.5" font-family="sans" font-size="10.00">bedtools_merge</text>
</g>
<!-- 12&#45;&gt;0 -->
<g id="edge5" class="edge"><title>12&#45;&gt;0</title>
<path fill="none" stroke="grey" stroke-width="2" d="M799.524,-287.813C811.845,-245.862 836.688,-136.924 786,-72 756.206,-33.8378 698.442,-22.7757 660.296,-19.7813"/>
<polygon fill="grey" stroke="grey" points="660.298,-16.2745 650.097,-19.1349 659.856,-23.2605 660.298,-16.2745"/>
</g>
<!-- 19 -->
<g id="node20" class="node"><title>19</title>
<path fill="none" stroke="#d6d856" stroke-width="2" stroke-dasharray="5,2" d="M775.25,-252C775.25,-252 694.75,-252 694.75,-252 688.75,-252 682.75,-246 682.75,-240 682.75,-240 682.75,-228 682.75,-228 682.75,-222 688.75,-216 694.75,-216 694.75,-216 775.25,-216 775.25,-216 781.25,-216 787.25,-222 787.25,-228 787.25,-228 787.25,-240 787.25,-240 787.25,-246 781.25,-252 775.25,-252"/>
<text text-anchor="middle" x="735" y="-231.5" font-family="sans" font-size="10.00">bedtools_intersect</text>
</g>
<!-- 12&#45;&gt;19 -->
<g id="edge38" class="edge"><title>12&#45;&gt;19</title>
<path fill="none" stroke="grey" stroke-width="2" d="M779.416,-287.697C772.342,-279.305 763.717,-269.07 755.955,-259.861"/>
<polygon fill="grey" stroke="grey" points="758.537,-257.495 749.417,-252.104 753.185,-262.006 758.537,-257.495"/>
</g>
<!-- 13 -->
<g id="node14" class="node"><title>13</title>
<path fill="none" stroke="#567bd8" stroke-width="2" stroke-dasharray="5,2" d="M706,-396C706,-396 674,-396 674,-396 668,-396 662,-390 662,-384 662,-384 662,-372 662,-372 662,-366 668,-360 674,-360 674,-360 706,-360 706,-360 712,-360 718,-366 718,-372 718,-372 718,-384 718,-384 718,-390 712,-396 706,-396"/>
<text text-anchor="middle" x="690" y="-375.5" font-family="sans" font-size="10.00">gaf2bed</text>
</g>
<!-- 13&#45;&gt;12 -->
<g id="edge26" class="edge"><title>13&#45;&gt;12</title>
<path fill="none" stroke="grey" stroke-width="2" d="M715.441,-359.876C728.787,-350.893 745.324,-339.763 759.778,-330.034"/>
<polygon fill="grey" stroke="grey" points="762.119,-332.677 768.461,-324.19 758.211,-326.87 762.119,-332.677"/>
</g>
<!-- 14&#45;&gt;13 -->
<g id="edge29" class="edge"><title>14&#45;&gt;13</title>
<path fill="none" stroke="grey" stroke-width="2" d="M667.416,-431.697C670.794,-423.813 674.87,-414.304 678.623,-405.546"/>
<polygon fill="grey" stroke="grey" points="681.947,-406.675 682.67,-396.104 675.513,-403.917 681.947,-406.675"/>
</g>
<!-- 15 -->
<g id="node16" class="node"><title>15</title>
<path fill="none" stroke="#567bd8" stroke-width="2" stroke-dasharray="5,2" d="M810,-396C810,-396 778,-396 778,-396 772,-396 766,-390 766,-384 766,-384 766,-372 766,-372 766,-366 772,-360 778,-360 778,-360 810,-360 810,-360 816,-360 822,-366 822,-372 822,-372 822,-384 822,-384 822,-390 816,-396 810,-396"/>
<text text-anchor="middle" x="794" y="-375.5" font-family="sans" font-size="10.00">gaf2bed</text>
</g>
<!-- 15&#45;&gt;12 -->
<g id="edge27" class="edge"><title>15&#45;&gt;12</title>
<path fill="none" stroke="grey" stroke-width="2" d="M794,-359.697C794,-351.983 794,-342.712 794,-334.112"/>
<polygon fill="grey" stroke="grey" points="797.5,-334.104 794,-324.104 790.5,-334.104 797.5,-334.104"/>
</g>
<!-- 16&#45;&gt;15 -->
<g id="edge32" class="edge"><title>16&#45;&gt;15</title>
<path fill="none" stroke="grey" stroke-width="2" d="M794,-431.697C794,-423.983 794,-414.712 794,-406.112"/>
<polygon fill="grey" stroke="grey" points="797.5,-406.104 794,-396.104 790.5,-406.104 797.5,-406.104"/>
</g>
<!-- 17 -->
<g id="node18" class="node"><title>17</title>
<path fill="none" stroke="#567bd8" stroke-width="2" stroke-dasharray="5,2" d="M914,-396C914,-396 882,-396 882,-396 876,-396 870,-390 870,-384 870,-384 870,-372 870,-372 870,-366 876,-360 882,-360 882,-360 914,-360 914,-360 920,-360 926,-366 926,-372 926,-372 926,-384 926,-384 926,-390 920,-396 914,-396"/>
<text text-anchor="middle" x="898" y="-375.5" font-family="sans" font-size="10.00">gaf2bed</text>
</g>
<!-- 17&#45;&gt;12 -->
<g id="edge28" class="edge"><title>17&#45;&gt;12</title>
<path fill="none" stroke="grey" stroke-width="2" d="M872.559,-359.876C859.213,-350.893 842.676,-339.763 828.222,-330.034"/>
<polygon fill="grey" stroke="grey" points="829.789,-326.87 819.539,-324.19 825.881,-332.677 829.789,-326.87"/>
</g>
<!-- 18&#45;&gt;17 -->
<g id="edge35" class="edge"><title>18&#45;&gt;17</title>
<path fill="none" stroke="grey" stroke-width="2" d="M920.584,-431.697C917.206,-423.813 913.13,-414.304 909.377,-405.546"/>
<polygon fill="grey" stroke="grey" points="912.487,-403.917 905.33,-396.104 906.053,-406.675 912.487,-403.917"/>
</g>
<!-- 19&#45;&gt;0 -->
<g id="edge6" class="edge"><title>19&#45;&gt;0</title>
<path fill="none" stroke="grey" stroke-width="2" d="M745.809,-215.761C764.026,-184.276 795.967,-116.612 765,-72 741.543,-38.2073 693.782,-25.9223 660.148,-21.4787"/>
<polygon fill="grey" stroke="grey" points="660.539,-18.0008 650.205,-20.3363 659.74,-24.955 660.539,-18.0008"/>
</g>
<!-- 20 -->
<g id="node21" class="node"><title>20</title>
<path fill="none" stroke="#56d89a" stroke-width="2" stroke-dasharray="5,2" d="M687,-180C687,-180 619,-180 619,-180 613,-180 607,-174 607,-168 607,-168 607,-156 607,-156 607,-150 613,-144 619,-144 619,-144 687,-144 687,-144 693,-144 699,-150 699,-156 699,-156 699,-168 699,-168 699,-174 693,-180 687,-180"/>
<text text-anchor="middle" x="653" y="-159.5" font-family="sans" font-size="10.00">heatmap_upset</text>
</g>
<!-- 19&#45;&gt;20 -->
<g id="edge39" class="edge"><title>19&#45;&gt;20</title>
<path fill="none" stroke="grey" stroke-width="2" d="M714.73,-215.697C704.502,-206.965 691.939,-196.24 680.822,-186.75"/>
<polygon fill="grey" stroke="grey" points="682.915,-183.935 673.037,-180.104 678.37,-189.259 682.915,-183.935"/>
</g>
<!-- 21 -->
<g id="node22" class="node"><title>21</title>
<path fill="none" stroke="#56d87b" stroke-width="2" d="M744,-108C744,-108 714,-108 714,-108 708,-108 702,-102 702,-96 702,-96 702,-84 702,-84 702,-78 708,-72 714,-72 714,-72 744,-72 744,-72 750,-72 756,-78 756,-84 756,-84 756,-96 756,-96 756,-102 750,-108 744,-108"/>
<text text-anchor="middle" x="729" y="-87.5" font-family="sans" font-size="10.00">cog</text>
</g>
<!-- 19&#45;&gt;21 -->
<g id="edge40" class="edge"><title>19&#45;&gt;21</title>
<path fill="none" stroke="grey" stroke-width="2" d="M734.276,-215.871C733.254,-191.67 731.375,-147.211 730.157,-118.393"/>
<polygon fill="grey" stroke="grey" points="733.645,-118.033 729.726,-108.189 726.652,-118.328 733.645,-118.033"/>
</g>
<!-- 20&#45;&gt;0 -->
<g id="edge7" class="edge"><title>20&#45;&gt;0</title>
<path fill="none" stroke="grey" stroke-width="2" d="M635.267,-143.599C626.761,-133.998 617.468,-121.336 613,-108 606.27,-87.9111 609.537,-63.9936 614.066,-46.0143"/>
<polygon fill="grey" stroke="grey" points="617.491,-46.7614 616.812,-36.1884 610.75,-44.8772 617.491,-46.7614"/>
</g>
<!-- 23 -->
<g id="node24" class="node"><title>23</title>
<path fill="none" stroke="#56b9d8" stroke-width="2" stroke-dasharray="5,2" d="M672,-108C672,-108 634,-108 634,-108 628,-108 622,-102 622,-96 622,-96 622,-84 622,-84 622,-78 628,-72 634,-72 634,-72 672,-72 672,-72 678,-72 684,-78 684,-84 684,-84 684,-96 684,-96 684,-102 678,-108 672,-108"/>
<text text-anchor="middle" x="653" y="-87.5" font-family="sans" font-size="10.00">micropan</text>
</g>
<!-- 20&#45;&gt;23 -->
<g id="edge42" class="edge"><title>20&#45;&gt;23</title>
<path fill="none" stroke="grey" stroke-width="2" d="M653,-143.697C653,-135.983 653,-126.712 653,-118.112"/>
<polygon fill="grey" stroke="grey" points="656.5,-118.104 653,-108.104 649.5,-118.104 656.5,-118.104"/>
</g>
<!-- 21&#45;&gt;0 -->
<g id="edge8" class="edge"><title>21&#45;&gt;0</title>
<path fill="none" stroke="grey" stroke-width="2" d="M703.069,-71.8761C689.338,-62.8083 672.294,-51.5523 657.464,-41.7592"/>
<polygon fill="grey" stroke="grey" points="659.304,-38.7798 649.03,-36.1898 655.446,-44.621 659.304,-38.7798"/>
</g>
<!-- 22&#45;&gt;0 -->
<g id="edge9" class="edge"><title>22&#45;&gt;0</title>
<path fill="none" stroke="grey" stroke-width="2" d="M953.982,-143.796C927.419,-123.824 880.735,-91.1816 836,-72 777.114,-46.7505 703.698,-31.8056 660.239,-24.5212"/>
<polygon fill="grey" stroke="grey" points="660.558,-21.0271 650.125,-22.8741 659.433,-27.9361 660.558,-21.0271"/>
</g>
<!-- 23&#45;&gt;0 -->
<g id="edge10" class="edge"><title>23&#45;&gt;0</title>
<path fill="none" stroke="grey" stroke-width="2" d="M645.584,-71.6966C642.206,-63.8132 638.13,-54.3042 634.377,-45.5464"/>
<polygon fill="grey" stroke="grey" points="637.487,-43.9171 630.33,-36.1043 631.053,-46.6745 637.487,-43.9171"/>
</g>
</g>
</svg>
